<?xml version="1.0" encoding="utf-8"?>
<!-- Generator: Adobe Illustrator 19.0.0, SVG Export Plug-In . SVG Version: 6.00 Build 0)  -->
<svg version="1.1" id="Layer_1" xmlns="http://www.w3.org/2000/svg" xmlns:xlink="http://www.w3.org/1999/xlink" x="0px" y="0px"
	 viewBox="-0.2 99.3 800 497.2" style="enable-background:new -0.2 99.3 800 497.2;" xml:space="preserve">
<style type="text/css">
	.st0{fill:#FFFFFF;}
</style>
<g id="XMLID_3_">
	<path id="XMLID_4_" class="st0" d="M130.6,481.6V212H309v45.6H179.1v59.8H300v45.4H179.1v73.4h134.4v45.4L130.6,481.6L130.6,481.6z
		"/>
	<path id="XMLID_6_" class="st0" d="M323.8,482.1v-59.2l61.2-23.5V291.6l-61.2-22.3v-57.7l269.6,105v57.6L323.8,482.1z M430.5,381.9
		l100-37.1l-100-36.4V381.9z"/>
	<path id="XMLID_13_" class="st0" d="M617,207v179.2c0,21.8-1.1,36.2-6.1,43.1s-12.9,10.4-25,10.4c-12,0-20.6-4.8-26.5-14.5
		c-2.8-4.6-4.6-11.5-5.7-20.6L504,424.5c3.2,16.2,9.6,29.4,19.2,39.4c14.3,14.9,34.8,22.3,61.4,22.3c22.7,0,41-4.8,54.8-14.3
		c13.9-9.5,20.9-22.1,26.2-37.8c3.9-12,3.4-29.2,3.4-51.5V207H617z"/>
</g>
<g id="XMLID_1_">
	<path id="XMLID_22_" class="st0" d="M780.8,118.3v459.2h-762V118.3H780.8 M799.8,99.3h-800v497.2h800V99.3L799.8,99.3z"/>
</g>
</svg>
